<svg width="960" height="600" viewBox="0 0 960 600" fill="none" xmlns="http://www.w3.org/2000/svg">
  <rect width="960" height="600" rx="28" fill="#f8fafc"/>
  <rect x="28" y="28" width="904" height="544" rx="24" fill="#ffffff" stroke="#cbd5e1"/>
  <rect x="28" y="28" width="904" height="58" rx="24" fill="#e2e8f0"/>
  <circle cx="64" cy="57" r="7" fill="#f87171"/>
  <circle cx="90" cy="57" r="7" fill="#fbbf24"/>
  <circle cx="116" cy="57" r="7" fill="#34d399"/>
  <rect x="56" y="124" width="380" height="392" rx="18" fill="#111827"/>
  <text x="86" y="174" font-family="JetBrains Mono, Consolas, monospace" font-size="22" fill="#38bdf8">sequenceDiagram</text>
  <text x="86" y="218" font-family="JetBrains Mono, Consolas, monospace" font-size="20" fill="#cbd5e1">User-&gt;&gt;Editor: write</text>
  <text x="86" y="260" font-family="JetBrains Mono, Consolas, monospace" font-size="20" fill="#cbd5e1">Editor-&gt;&gt;Render: preview</text>
  <text x="86" y="302" font-family="JetBrains Mono, Consolas, monospace" font-size="20" fill="#cbd5e1">Render--&gt;&gt;User: SVG</text>
  <rect x="486" y="124" width="418" height="392" rx="18" fill="#eff6ff"/>
  <rect x="568" y="200" width="128" height="54" rx="16" fill="#ffffff" stroke="#2563eb" stroke-width="3"/>
  <rect x="748" y="200" width="128" height="54" rx="16" fill="#ffffff" stroke="#2563eb" stroke-width="3"/>
  <rect x="658" y="344" width="128" height="54" rx="16" fill="#ffffff" stroke="#2563eb" stroke-width="3"/>
  <path d="M696 227H748" stroke="#2563eb" stroke-width="4" stroke-linecap="round"/>
  <path d="M632 254L705 344" stroke="#2563eb" stroke-width="4" stroke-linecap="round"/>
  <path d="M812 254L729 344" stroke="#2563eb" stroke-width="4" stroke-linecap="round"/>
  <text x="601" y="234" font-family="Inter, Arial, sans-serif" font-size="18" font-weight="700" fill="#0f172a">Editor</text>
  <text x="782" y="234" font-family="Inter, Arial, sans-serif" font-size="18" font-weight="700" fill="#0f172a">Render</text>
  <text x="695" y="379" font-family="Inter, Arial, sans-serif" font-size="18" font-weight="700" fill="#0f172a">Export</text>
</svg>
